<mxfile host="app.diagrams.net" agent="Mozilla/5.0 (Windows NT 10.0; Win64; x64) AppleWebKit/537.36 (KHTML, like Gecko) Chrome/132.0.0.0 Safari/537.36" version="26.0.11">
  <diagram name="Page-1" id="JwsKtSlzKJL-_fA95mNr">
    <mxGraphModel dx="2614" dy="2118" grid="1" gridSize="10" guides="1" tooltips="1" connect="1" arrows="1" fold="1" page="1" pageScale="1" pageWidth="850" pageHeight="1100" math="0" shadow="0">
      <root>
        <mxCell id="0" />
        <mxCell id="1" parent="0" />
        <mxCell id="wLBPmGkjSrUaY8O8nYOr-3" value="" style="edgeStyle=orthogonalEdgeStyle;rounded=0;orthogonalLoop=1;jettySize=auto;html=1;" parent="1" source="wLBPmGkjSrUaY8O8nYOr-1" target="wLBPmGkjSrUaY8O8nYOr-2" edge="1">
          <mxGeometry relative="1" as="geometry" />
        </mxCell>
        <mxCell id="wLBPmGkjSrUaY8O8nYOr-1" value="Customer Registration" style="strokeWidth=2;html=1;shape=mxgraph.flowchart.start_1;whiteSpace=wrap;" parent="1" vertex="1">
          <mxGeometry x="240" y="-40" width="100" height="60" as="geometry" />
        </mxCell>
        <mxCell id="wLBPmGkjSrUaY8O8nYOr-5" style="edgeStyle=orthogonalEdgeStyle;rounded=0;orthogonalLoop=1;jettySize=auto;html=1;" parent="1" source="wLBPmGkjSrUaY8O8nYOr-2" edge="1">
          <mxGeometry relative="1" as="geometry">
            <mxPoint x="290" y="280" as="targetPoint" />
          </mxGeometry>
        </mxCell>
        <mxCell id="wLBPmGkjSrUaY8O8nYOr-2" value="Sedin Admin Portal&#39;s Inbox" style="rhombus;whiteSpace=wrap;html=1;strokeWidth=2;" parent="1" vertex="1">
          <mxGeometry x="240" y="90" width="100" height="110" as="geometry" />
        </mxCell>
        <mxCell id="wLBPmGkjSrUaY8O8nYOr-13" style="edgeStyle=orthogonalEdgeStyle;rounded=0;orthogonalLoop=1;jettySize=auto;html=1;entryX=0.5;entryY=0;entryDx=0;entryDy=0;exitX=0.5;exitY=1;exitDx=0;exitDy=0;" parent="1" source="TD3ph9XTpCU9QJQ2LqiL-3" target="wLBPmGkjSrUaY8O8nYOr-11" edge="1">
          <mxGeometry relative="1" as="geometry" />
        </mxCell>
        <mxCell id="wLBPmGkjSrUaY8O8nYOr-23" style="edgeStyle=orthogonalEdgeStyle;rounded=0;orthogonalLoop=1;jettySize=auto;html=1;entryX=0.5;entryY=0;entryDx=0;entryDy=0;exitX=0;exitY=0.5;exitDx=0;exitDy=0;" parent="1" source="TD3ph9XTpCU9QJQ2LqiL-3" target="wLBPmGkjSrUaY8O8nYOr-22" edge="1">
          <mxGeometry relative="1" as="geometry" />
        </mxCell>
        <mxCell id="TD3ph9XTpCU9QJQ2LqiL-4" style="edgeStyle=orthogonalEdgeStyle;rounded=0;orthogonalLoop=1;jettySize=auto;html=1;entryX=0.5;entryY=0;entryDx=0;entryDy=0;" edge="1" parent="1" source="wLBPmGkjSrUaY8O8nYOr-4" target="TD3ph9XTpCU9QJQ2LqiL-3">
          <mxGeometry relative="1" as="geometry" />
        </mxCell>
        <mxCell id="wLBPmGkjSrUaY8O8nYOr-4" value="Customer Login" style="strokeWidth=2;html=1;shape=mxgraph.flowchart.start_1;whiteSpace=wrap;" parent="1" vertex="1">
          <mxGeometry x="240" y="280" width="100" height="60" as="geometry" />
        </mxCell>
        <mxCell id="wLBPmGkjSrUaY8O8nYOr-6" value="Reject (A mail is sent to the user with optional reason)" style="strokeWidth=2;html=1;shape=mxgraph.flowchart.start_1;whiteSpace=wrap;" parent="1" vertex="1">
          <mxGeometry x="50" y="110" width="130" height="70" as="geometry" />
        </mxCell>
        <mxCell id="wLBPmGkjSrUaY8O8nYOr-7" style="edgeStyle=orthogonalEdgeStyle;rounded=0;orthogonalLoop=1;jettySize=auto;html=1;entryX=1;entryY=0.5;entryDx=0;entryDy=0;entryPerimeter=0;" parent="1" source="wLBPmGkjSrUaY8O8nYOr-2" target="wLBPmGkjSrUaY8O8nYOr-6" edge="1">
          <mxGeometry relative="1" as="geometry" />
        </mxCell>
        <mxCell id="wLBPmGkjSrUaY8O8nYOr-8" style="edgeStyle=orthogonalEdgeStyle;rounded=0;orthogonalLoop=1;jettySize=auto;html=1;entryX=0;entryY=0.5;entryDx=0;entryDy=0;entryPerimeter=0;" parent="1" source="wLBPmGkjSrUaY8O8nYOr-6" target="wLBPmGkjSrUaY8O8nYOr-1" edge="1">
          <mxGeometry relative="1" as="geometry">
            <Array as="points">
              <mxPoint x="115" y="-10" />
            </Array>
          </mxGeometry>
        </mxCell>
        <mxCell id="wLBPmGkjSrUaY8O8nYOr-9" value="&lt;b&gt;Approve&lt;/b&gt;" style="text;html=1;align=center;verticalAlign=middle;whiteSpace=wrap;rounded=0;" parent="1" vertex="1">
          <mxGeometry x="220" y="220" width="60" height="30" as="geometry" />
        </mxCell>
        <mxCell id="wLBPmGkjSrUaY8O8nYOr-10" value="On approval, an email is sent to the user with &lt;b&gt;portal link&lt;/b&gt;, &lt;b&gt;username&lt;/b&gt;, &lt;b&gt;password&lt;/b&gt;" style="text;html=1;align=center;verticalAlign=middle;whiteSpace=wrap;rounded=0;" parent="1" vertex="1">
          <mxGeometry x="300" y="230" width="190" height="30" as="geometry" />
        </mxCell>
        <mxCell id="wLBPmGkjSrUaY8O8nYOr-14" style="edgeStyle=orthogonalEdgeStyle;rounded=0;orthogonalLoop=1;jettySize=auto;html=1;" parent="1" source="wLBPmGkjSrUaY8O8nYOr-11" target="wLBPmGkjSrUaY8O8nYOr-12" edge="1">
          <mxGeometry relative="1" as="geometry" />
        </mxCell>
        <mxCell id="wLBPmGkjSrUaY8O8nYOr-11" value="Configuration Manager" style="rounded=1;whiteSpace=wrap;html=1;" parent="1" vertex="1">
          <mxGeometry x="230" y="590" width="120" height="60" as="geometry" />
        </mxCell>
        <mxCell id="wLBPmGkjSrUaY8O8nYOr-15" style="edgeStyle=orthogonalEdgeStyle;rounded=0;orthogonalLoop=1;jettySize=auto;html=1;entryX=0.5;entryY=0;entryDx=0;entryDy=0;" parent="1" source="wLBPmGkjSrUaY8O8nYOr-12" target="wLBPmGkjSrUaY8O8nYOr-16" edge="1">
          <mxGeometry relative="1" as="geometry">
            <mxPoint x="290" y="820" as="targetPoint" />
          </mxGeometry>
        </mxCell>
        <mxCell id="wLBPmGkjSrUaY8O8nYOr-12" value="Entity Data Mapping" style="rounded=1;whiteSpace=wrap;html=1;" parent="1" vertex="1">
          <mxGeometry x="230" y="730" width="120" height="60" as="geometry" />
        </mxCell>
        <mxCell id="wLBPmGkjSrUaY8O8nYOr-18" value="" style="edgeStyle=orthogonalEdgeStyle;rounded=0;orthogonalLoop=1;jettySize=auto;html=1;" parent="1" source="wLBPmGkjSrUaY8O8nYOr-16" target="wLBPmGkjSrUaY8O8nYOr-17" edge="1">
          <mxGeometry relative="1" as="geometry" />
        </mxCell>
        <mxCell id="wLBPmGkjSrUaY8O8nYOr-16" value="Transformation Agent" style="rounded=1;whiteSpace=wrap;html=1;" parent="1" vertex="1">
          <mxGeometry x="230" y="875" width="120" height="60" as="geometry" />
        </mxCell>
        <mxCell id="wLBPmGkjSrUaY8O8nYOr-20" value="" style="edgeStyle=orthogonalEdgeStyle;rounded=0;orthogonalLoop=1;jettySize=auto;html=1;" parent="1" source="wLBPmGkjSrUaY8O8nYOr-17" target="wLBPmGkjSrUaY8O8nYOr-19" edge="1">
          <mxGeometry relative="1" as="geometry" />
        </mxCell>
        <mxCell id="wLBPmGkjSrUaY8O8nYOr-17" value="Scheduler" style="rounded=1;whiteSpace=wrap;html=1;" parent="1" vertex="1">
          <mxGeometry x="230" y="1050" width="120" height="60" as="geometry" />
        </mxCell>
        <mxCell id="wLBPmGkjSrUaY8O8nYOr-19" value="Monitor / Dashboard" style="rounded=1;whiteSpace=wrap;html=1;" parent="1" vertex="1">
          <mxGeometry x="230" y="1310" width="120" height="60" as="geometry" />
        </mxCell>
        <mxCell id="wLBPmGkjSrUaY8O8nYOr-30" style="edgeStyle=orthogonalEdgeStyle;rounded=0;orthogonalLoop=1;jettySize=auto;html=1;" parent="1" source="wLBPmGkjSrUaY8O8nYOr-22" edge="1">
          <mxGeometry relative="1" as="geometry">
            <mxPoint x="80" y="640" as="targetPoint" />
          </mxGeometry>
        </mxCell>
        <mxCell id="wLBPmGkjSrUaY8O8nYOr-22" value="User Creation" style="rounded=1;whiteSpace=wrap;html=1;" parent="1" vertex="1">
          <mxGeometry x="20" y="524" width="120" height="60" as="geometry" />
        </mxCell>
        <mxCell id="wLBPmGkjSrUaY8O8nYOr-33" value="" style="edgeStyle=orthogonalEdgeStyle;rounded=0;orthogonalLoop=1;jettySize=auto;html=1;" parent="1" source="wLBPmGkjSrUaY8O8nYOr-31" edge="1">
          <mxGeometry relative="1" as="geometry">
            <mxPoint x="80" y="770" as="targetPoint" />
          </mxGeometry>
        </mxCell>
        <mxCell id="wLBPmGkjSrUaY8O8nYOr-31" value="User Creation Form" style="rounded=1;whiteSpace=wrap;html=1;" parent="1" vertex="1">
          <mxGeometry x="20" y="640" width="120" height="60" as="geometry" />
        </mxCell>
        <mxCell id="wLBPmGkjSrUaY8O8nYOr-35" style="edgeStyle=orthogonalEdgeStyle;rounded=0;orthogonalLoop=1;jettySize=auto;html=1;" parent="1" source="wLBPmGkjSrUaY8O8nYOr-34" edge="1">
          <mxGeometry relative="1" as="geometry">
            <mxPoint x="-80" y="890" as="targetPoint" />
          </mxGeometry>
        </mxCell>
        <mxCell id="wLBPmGkjSrUaY8O8nYOr-40" style="edgeStyle=orthogonalEdgeStyle;rounded=0;orthogonalLoop=1;jettySize=auto;html=1;entryX=0.5;entryY=0;entryDx=0;entryDy=0;exitX=0.5;exitY=1;exitDx=0;exitDy=0;exitPerimeter=0;" parent="1" source="wLBPmGkjSrUaY8O8nYOr-34" target="wLBPmGkjSrUaY8O8nYOr-39" edge="1">
          <mxGeometry relative="1" as="geometry">
            <Array as="points" />
          </mxGeometry>
        </mxCell>
        <mxCell id="wLBPmGkjSrUaY8O8nYOr-34" value="Valid Inputs" style="strokeWidth=2;html=1;shape=mxgraph.flowchart.decision;whiteSpace=wrap;" parent="1" vertex="1">
          <mxGeometry x="30" y="770" width="100" height="100" as="geometry" />
        </mxCell>
        <mxCell id="wLBPmGkjSrUaY8O8nYOr-37" value="Show Error Toaster Message" style="strokeWidth=2;html=1;shape=mxgraph.flowchart.start_1;whiteSpace=wrap;" parent="1" vertex="1">
          <mxGeometry x="-130" y="890" width="100" height="60" as="geometry" />
        </mxCell>
        <mxCell id="wLBPmGkjSrUaY8O8nYOr-38" value="Invalid" style="text;html=1;align=center;verticalAlign=middle;whiteSpace=wrap;rounded=0;" parent="1" vertex="1">
          <mxGeometry x="-50" y="800" width="60" height="30" as="geometry" />
        </mxCell>
        <mxCell id="wLBPmGkjSrUaY8O8nYOr-39" value="Stores in database, And shows the list" style="rounded=1;whiteSpace=wrap;html=1;" parent="1" vertex="1">
          <mxGeometry x="20" y="935" width="120" height="60" as="geometry" />
        </mxCell>
        <mxCell id="wLBPmGkjSrUaY8O8nYOr-42" value="" style="strokeWidth=2;html=1;shape=mxgraph.flowchart.start_2;whiteSpace=wrap;" parent="1" vertex="1">
          <mxGeometry x="65" y="1020" width="30" height="30" as="geometry" />
        </mxCell>
        <mxCell id="wLBPmGkjSrUaY8O8nYOr-43" style="edgeStyle=orthogonalEdgeStyle;rounded=0;orthogonalLoop=1;jettySize=auto;html=1;entryX=0.5;entryY=0;entryDx=0;entryDy=0;entryPerimeter=0;" parent="1" source="wLBPmGkjSrUaY8O8nYOr-39" target="wLBPmGkjSrUaY8O8nYOr-42" edge="1">
          <mxGeometry relative="1" as="geometry" />
        </mxCell>
        <mxCell id="wLBPmGkjSrUaY8O8nYOr-52" value="Valid" style="text;html=1;align=center;verticalAlign=middle;whiteSpace=wrap;rounded=0;" parent="1" vertex="1">
          <mxGeometry x="80" y="890" width="60" height="30" as="geometry" />
        </mxCell>
        <mxCell id="wLBPmGkjSrUaY8O8nYOr-58" value="" style="edgeStyle=orthogonalEdgeStyle;rounded=0;orthogonalLoop=1;jettySize=auto;html=1;" parent="1" source="wLBPmGkjSrUaY8O8nYOr-59" target="wLBPmGkjSrUaY8O8nYOr-61" edge="1">
          <mxGeometry relative="1" as="geometry" />
        </mxCell>
        <mxCell id="wLBPmGkjSrUaY8O8nYOr-59" value="Customer Registration" style="strokeWidth=2;html=1;shape=mxgraph.flowchart.start_1;whiteSpace=wrap;" parent="1" vertex="1">
          <mxGeometry x="1130" y="90" width="100" height="60" as="geometry" />
        </mxCell>
        <mxCell id="wLBPmGkjSrUaY8O8nYOr-60" style="edgeStyle=orthogonalEdgeStyle;rounded=0;orthogonalLoop=1;jettySize=auto;html=1;" parent="1" source="wLBPmGkjSrUaY8O8nYOr-61" edge="1">
          <mxGeometry relative="1" as="geometry">
            <mxPoint x="1180" y="410" as="targetPoint" />
          </mxGeometry>
        </mxCell>
        <mxCell id="wLBPmGkjSrUaY8O8nYOr-61" value="Sedin Admin Portal&#39;s Inbox" style="rhombus;whiteSpace=wrap;html=1;strokeWidth=2;" parent="1" vertex="1">
          <mxGeometry x="1130" y="220" width="100" height="110" as="geometry" />
        </mxCell>
        <mxCell id="wLBPmGkjSrUaY8O8nYOr-62" value="Reject (A mail is sent to the user with optional reason)" style="strokeWidth=2;html=1;shape=mxgraph.flowchart.start_1;whiteSpace=wrap;" parent="1" vertex="1">
          <mxGeometry x="940" y="240" width="130" height="70" as="geometry" />
        </mxCell>
        <mxCell id="wLBPmGkjSrUaY8O8nYOr-63" style="edgeStyle=orthogonalEdgeStyle;rounded=0;orthogonalLoop=1;jettySize=auto;html=1;entryX=1;entryY=0.5;entryDx=0;entryDy=0;entryPerimeter=0;" parent="1" source="wLBPmGkjSrUaY8O8nYOr-61" target="wLBPmGkjSrUaY8O8nYOr-62" edge="1">
          <mxGeometry relative="1" as="geometry" />
        </mxCell>
        <mxCell id="wLBPmGkjSrUaY8O8nYOr-64" style="edgeStyle=orthogonalEdgeStyle;rounded=0;orthogonalLoop=1;jettySize=auto;html=1;entryX=0;entryY=0.5;entryDx=0;entryDy=0;entryPerimeter=0;" parent="1" source="wLBPmGkjSrUaY8O8nYOr-62" target="wLBPmGkjSrUaY8O8nYOr-59" edge="1">
          <mxGeometry relative="1" as="geometry">
            <Array as="points">
              <mxPoint x="1005" y="120" />
            </Array>
          </mxGeometry>
        </mxCell>
        <mxCell id="wLBPmGkjSrUaY8O8nYOr-65" value="&lt;b&gt;Approve&lt;/b&gt;" style="text;html=1;align=center;verticalAlign=middle;whiteSpace=wrap;rounded=0;" parent="1" vertex="1">
          <mxGeometry x="1110" y="350" width="60" height="30" as="geometry" />
        </mxCell>
        <mxCell id="wLBPmGkjSrUaY8O8nYOr-66" value="On approval, an email is sent to the user with &lt;b&gt;portal link&lt;/b&gt;, &lt;b&gt;username&lt;/b&gt;, &lt;b&gt;password&lt;/b&gt;" style="text;html=1;align=center;verticalAlign=middle;whiteSpace=wrap;rounded=0;" parent="1" vertex="1">
          <mxGeometry x="1180" y="360" width="190" height="30" as="geometry" />
        </mxCell>
        <mxCell id="wLBPmGkjSrUaY8O8nYOr-67" value="Customer Login" style="strokeWidth=2;html=1;shape=mxgraph.flowchart.start_1;whiteSpace=wrap;" parent="1" vertex="1">
          <mxGeometry x="1130" y="410" width="100" height="60" as="geometry" />
        </mxCell>
        <mxCell id="wLBPmGkjSrUaY8O8nYOr-68" value="" style="edgeStyle=orthogonalEdgeStyle;rounded=0;orthogonalLoop=1;jettySize=auto;html=1;" parent="1" edge="1">
          <mxGeometry relative="1" as="geometry">
            <mxPoint x="80" y="450" as="sourcePoint" />
            <mxPoint x="-220" y="520" as="targetPoint" />
            <Array as="points">
              <mxPoint x="-220" y="450" />
            </Array>
          </mxGeometry>
        </mxCell>
        <mxCell id="wLBPmGkjSrUaY8O8nYOr-69" value="Module Creation Form" style="whiteSpace=wrap;html=1;rounded=1;" parent="1" vertex="1">
          <mxGeometry x="-275" y="640" width="120" height="60" as="geometry" />
        </mxCell>
        <mxCell id="wLBPmGkjSrUaY8O8nYOr-70" value="" style="edgeStyle=orthogonalEdgeStyle;rounded=0;orthogonalLoop=1;jettySize=auto;html=1;entryX=0.498;entryY=-0.05;entryDx=0;entryDy=0;entryPerimeter=0;" parent="1" source="wLBPmGkjSrUaY8O8nYOr-72" target="wLBPmGkjSrUaY8O8nYOr-74" edge="1">
          <mxGeometry relative="1" as="geometry">
            <mxPoint x="-215" y="965" as="targetPoint" />
          </mxGeometry>
        </mxCell>
        <mxCell id="wLBPmGkjSrUaY8O8nYOr-71" style="edgeStyle=orthogonalEdgeStyle;rounded=0;orthogonalLoop=1;jettySize=auto;html=1;entryX=0.5;entryY=0;entryDx=0;entryDy=0;" parent="1" source="wLBPmGkjSrUaY8O8nYOr-72" target="wLBPmGkjSrUaY8O8nYOr-75" edge="1">
          <mxGeometry relative="1" as="geometry" />
        </mxCell>
        <mxCell id="wLBPmGkjSrUaY8O8nYOr-72" value="Valid Inputs" style="strokeWidth=2;html=1;shape=mxgraph.flowchart.decision;whiteSpace=wrap;" parent="1" vertex="1">
          <mxGeometry x="-265" y="765" width="100" height="100" as="geometry" />
        </mxCell>
        <mxCell id="wLBPmGkjSrUaY8O8nYOr-73" style="edgeStyle=orthogonalEdgeStyle;rounded=0;orthogonalLoop=1;jettySize=auto;html=1;entryX=0.5;entryY=0;entryDx=0;entryDy=0;entryPerimeter=0;exitX=0.5;exitY=1;exitDx=0;exitDy=0;" parent="1" source="wLBPmGkjSrUaY8O8nYOr-69" target="wLBPmGkjSrUaY8O8nYOr-72" edge="1">
          <mxGeometry relative="1" as="geometry">
            <mxPoint x="-215" y="700" as="sourcePoint" />
          </mxGeometry>
        </mxCell>
        <mxCell id="wLBPmGkjSrUaY8O8nYOr-74" value="Click Create button, Module gets created" style="rounded=1;whiteSpace=wrap;html=1;" parent="1" vertex="1">
          <mxGeometry x="-275" y="910" width="120" height="60" as="geometry" />
        </mxCell>
        <mxCell id="wLBPmGkjSrUaY8O8nYOr-75" value="Show Error Toaster message" style="ellipse;whiteSpace=wrap;html=1;" parent="1" vertex="1">
          <mxGeometry x="-425" y="840" width="120" height="80" as="geometry" />
        </mxCell>
        <mxCell id="wLBPmGkjSrUaY8O8nYOr-76" value="" style="strokeWidth=2;html=1;shape=mxgraph.flowchart.start_2;whiteSpace=wrap;" parent="1" vertex="1">
          <mxGeometry x="-230" y="1000" width="30" height="30" as="geometry" />
        </mxCell>
        <mxCell id="wLBPmGkjSrUaY8O8nYOr-77" style="edgeStyle=orthogonalEdgeStyle;rounded=0;orthogonalLoop=1;jettySize=auto;html=1;entryX=0.5;entryY=0;entryDx=0;entryDy=0;entryPerimeter=0;" parent="1" source="wLBPmGkjSrUaY8O8nYOr-74" target="wLBPmGkjSrUaY8O8nYOr-76" edge="1">
          <mxGeometry relative="1" as="geometry" />
        </mxCell>
        <mxCell id="wLBPmGkjSrUaY8O8nYOr-79" style="edgeStyle=orthogonalEdgeStyle;rounded=0;orthogonalLoop=1;jettySize=auto;html=1;entryX=0.5;entryY=0;entryDx=0;entryDy=0;" parent="1" source="wLBPmGkjSrUaY8O8nYOr-78" target="wLBPmGkjSrUaY8O8nYOr-69" edge="1">
          <mxGeometry relative="1" as="geometry" />
        </mxCell>
        <mxCell id="wLBPmGkjSrUaY8O8nYOr-78" value="Module Creation" style="rounded=1;whiteSpace=wrap;html=1;" parent="1" vertex="1">
          <mxGeometry x="-275" y="520" width="120" height="60" as="geometry" />
        </mxCell>
        <mxCell id="wLBPmGkjSrUaY8O8nYOr-83" value="&#xa;&lt;p data-pm-slice=&quot;1 1 []&quot;&gt;Configuration Manager  is used to set up between data sources and destinations.Users define whether they are configuring a Source  or a Destination and choose between On-Premises or Cloud environments.  Based on the selection, they provide connection details.&lt;/p&gt;&#xa;&#xa;" style="whiteSpace=wrap;html=1;shape=mxgraph.basic.document" parent="1" vertex="1">
          <mxGeometry x="400" y="470" width="260" height="230" as="geometry" />
        </mxCell>
        <mxCell id="wLBPmGkjSrUaY8O8nYOr-86" value="Transformation Agent, this is where the deduplication, and other data cleansing logic happens." style="whiteSpace=wrap;html=1;shape=mxgraph.basic.document" parent="1" vertex="1">
          <mxGeometry x="400" y="830" width="200" height="170" as="geometry" />
        </mxCell>
        <mxCell id="wLBPmGkjSrUaY8O8nYOr-91" value="&lt;span style=&quot;background-color: transparent; color: light-dark(rgb(0, 0, 0), rgb(255, 255, 255));&quot;&gt;The Scheduler is used to create and manage job schedules for data processing. Users can define schedules with a Generic type (runs automatically on table defined values) or a Specific type (runs based on user-defined intervals like weekly or monthly). When setting up a schedule, users provide details such as Load Type (Full or Incremental), Watermark for incremental loads, and a time interval for execution.&lt;/span&gt;" style="whiteSpace=wrap;html=1;shape=mxgraph.basic.document" parent="1" vertex="1">
          <mxGeometry x="400" y="1030" width="255" height="220" as="geometry" />
        </mxCell>
        <mxCell id="wLBPmGkjSrUaY8O8nYOr-92" value="&#xa;&lt;p data-pm-slice=&quot;0 0 []&quot;&gt;The Monitor and Dashboard track ETL job execution, errors, and performance. The Monitor provides real-time logs and troubleshooting, while the Dashboard offers visual insights with charts and KPIs for performance analysis.&lt;/p&gt;&#xa;&#xa;" style="whiteSpace=wrap;html=1;shape=mxgraph.basic.document" parent="1" vertex="1">
          <mxGeometry x="400" y="1290" width="250" height="210" as="geometry" />
        </mxCell>
        <mxCell id="TD3ph9XTpCU9QJQ2LqiL-1" value="&lt;b&gt;No&lt;/b&gt;" style="text;html=1;align=center;verticalAlign=middle;whiteSpace=wrap;rounded=0;" vertex="1" parent="1">
          <mxGeometry x="180" y="120" width="60" height="30" as="geometry" />
        </mxCell>
        <mxCell id="TD3ph9XTpCU9QJQ2LqiL-3" value="Home page" style="rounded=1;whiteSpace=wrap;html=1;" vertex="1" parent="1">
          <mxGeometry x="230" y="420" width="120" height="60" as="geometry" />
        </mxCell>
      </root>
    </mxGraphModel>
  </diagram>
</mxfile>
